<mxfile host="app.diagrams.net" modified="2024-03-12T06:53:05.450Z" agent="Mozilla/5.0 (Windows NT 10.0; Win64; x64) AppleWebKit/537.36 (KHTML, like Gecko) Chrome/122.0.0.0 Safari/537.36" etag="8sldbx6guYtaxoHRIcRn" version="24.0.5" type="device">
  <diagram name="第 1 页" id="MizgGOxtH2WQLVwWoABV">
    <mxGraphModel dx="2000" dy="1146" grid="1" gridSize="10" guides="1" tooltips="1" connect="1" arrows="1" fold="1" page="1" pageScale="1" pageWidth="827" pageHeight="1169" math="0" shadow="0">
      <root>
        <mxCell id="0" />
        <mxCell id="1" parent="0" />
        <mxCell id="-Jsa2ZVrdwVMC8oXkVd5-2" value="typed_word" style="rounded=0;whiteSpace=wrap;html=1;" vertex="1" parent="1">
          <mxGeometry x="340" y="200" width="120" height="60" as="geometry" />
        </mxCell>
      </root>
    </mxGraphModel>
  </diagram>
</mxfile>
